<?xml version="1.0" standalone="no"?>
<!DOCTYPE svg PUBLIC "-//W3C//DTD SVG 20010904//EN"
 "http://www.w3.org/TR/2001/REC-SVG-20010904/DTD/svg10.dtd">
<svg version="1.0" xmlns="http://www.w3.org/2000/svg"
 width="200.000000pt" height="200.000000pt" viewBox="0 0 200.000000 200.000000"
 preserveAspectRatio="xMidYMid meet">
<metadata>
Created by potrace 1.11, written by Peter Selinger 2001-2013
</metadata>
<g transform="translate(0.000000,200.000000) scale(0.100000,-0.100000)"
fill="#000000" stroke="none">
<path d="M852 1830 c-226 -59 -411 -245 -469 -470 -22 -86 -21 -235 1 -320 63
-238 240 -410 486 -471 219 -55 476 26 629 198 53 59 121 180 140 248 101 358
-109 724 -465 815 -99 26 -224 25 -322 0z m201 -27 c-18 -2 -48 -2 -65 0 -18
2 -4 4 32 4 36 0 50 -2 33 -4z m-130 -10 c-7 -2 -19 -2 -25 0 -7 3 -2 5 12 5
14 0 19 -2 13 -5z m210 0 c-7 -2 -19 -2 -25 0 -7 3 -2 5 12 5 14 0 19 -2 13
-5z m-256 -9 c-3 -3 -12 -4 -19 -1 -8 3 -5 6 6 6 11 1 17 -2 13 -5z m300 0
c-3 -3 -12 -4 -19 -1 -8 3 -5 6 6 6 11 1 17 -2 13 -5z m-377 -24 c-8 -5 -19
-10 -25 -10 -5 0 -3 5 5 10 8 5 20 10 25 10 6 0 3 -5 -5 -10z m450 0 c8 -5 11
-10 5 -10 -5 0 -17 5 -25 10 -8 5 -10 10 -5 10 6 0 17 -5 25 -10z m-531 -34
c-2 -2 -32 -25 -67 -50 -34 -25 -83 -74 -108 -108 -52 -72 -66 -87 -40 -43 38
61 91 119 149 161 32 24 62 44 65 44 3 0 3 -2 1 -4z m674 -55 c13 -14 1 -8
-28 14 -63 47 -69 53 -27 29 18 -10 43 -30 55 -43z m132 -146 c16 -30 16 -30
-2 -5 -10 13 -37 49 -61 80 l-44 55 45 -50 c25 -27 53 -63 62 -80z m-171 33
c-5 -7 -64 -98 -133 -203 -106 -162 -182 -285 -316 -512 -25 -44 -57 -57 -69
-28 -5 15 21 56 162 254 52 72 82 123 82 140 0 34 18 67 88 164 63 89 163 197
181 197 7 0 9 -5 5 -12z m-314 -132 c-16 -25 -30 -50 -30 -58 0 -7 11 4 25 25
33 47 44 49 15 1 -31 -50 -17 -54 16 -5 36 55 41 52 8 -4 -14 -25 -21 -45 -15
-45 6 0 11 3 11 8 0 4 10 18 21 32 14 16 10 6 -9 -29 -17 -31 -47 -66 -68 -80
-40 -28 -137 -172 -204 -302 -42 -83 -60 -102 -84 -93 -27 10 -18 36 37 105
80 100 197 282 197 306 0 34 17 70 61 128 50 66 62 73 19 11z m540 -11 c0 -5
-5 -3 -10 5 -5 8 -10 20 -10 25 0 6 5 3 10 -5 5 -8 10 -19 10 -25z m-1146 -84
c-4 -17 -9 -30 -11 -27 -3 2 -2 19 2 36 9 41 17 33 9 -9z m1163 17 c-3 -8 -6
-5 -6 6 -1 11 2 17 5 13 3 -3 4 -12 1 -19z m10 -50 c-3 -7 -5 -2 -5 12 0 14 2
19 5 13 2 -7 2 -19 0 -25z m-1190 -135 c-2 -21 -4 -4 -4 37 0 41 2 58 4 38 2
-21 2 -55 0 -75z m1200 10 c-2 -21 -4 -6 -4 32 0 39 2 55 4 38 2 -18 2 -50 0
-70z m-10 -85 c-3 -7 -5 -2 -5 12 0 14 2 19 5 13 2 -7 2 -19 0 -25z m-1180
-10 c-3 -7 -5 -2 -5 12 0 14 2 19 5 13 2 -7 2 -19 0 -25z m1170 -30 c-3 -8 -6
-5 -6 6 -1 11 2 17 5 13 3 -3 4 -12 1 -19z m-1139 -63 c0 -5 -6 4 -13 20 -8
17 -14 37 -14 45 0 8 7 -1 14 -20 7 -19 13 -39 13 -45z m131 -196 c31 -30 70
-66 86 -78 24 -18 25 -20 5 -10 -62 30 -221 222 -220 265 0 5 17 -20 37 -56
20 -35 62 -90 92 -121z m934 90 c-10 -17 -40 -55 -68 -83 -27 -29 -34 -34 -14
-11 21 23 49 61 64 84 32 48 44 55 18 10z m-133 -143 c0 -2 -8 -10 -17 -17
-16 -13 -17 -12 -4 4 13 16 21 21 21 13z m-40 -31 c0 -6 -85 -55 -96 -55 -5 0
14 13 41 30 55 32 55 32 55 25z m-574 -53 c-5 -4 -66 26 -66 33 0 3 16 -3 35
-12 19 -9 33 -18 31 -21z m64 -17 c19 -7 28 -14 20 -14 -8 0 -28 6 -45 14 -39
17 -21 18 25 0z m375 0 c-16 -8 -37 -14 -45 -14 -8 0 1 7 20 14 46 18 64 17
25 0z m-302 -22 c-7 -2 -19 -2 -25 0 -7 3 -2 5 12 5 14 0 19 -2 13 -5z m230 0
c-7 -2 -19 -2 -25 0 -7 3 -2 5 12 5 14 0 19 -2 13 -5z m-85 -10 c-21 -2 -57
-2 -80 0 -24 2 -7 4 37 4 44 0 63 -2 43 -4z"/>
<path d="M1449 461 c-21 -16 -22 -22 -11 -45 21 -47 92 -31 92 21 0 20 -25 43
-48 43 -5 0 -20 -8 -33 -19z"/>
<path d="M970 400 c0 -57 -1 -60 -19 -50 -28 15 -87 12 -121 -5 -80 -41 -80
-189 0 -230 35 -18 111 -20 128 -3 9 9 12 9 12 0 0 -7 16 -12 40 -12 l40 0 0
180 0 180 -40 0 -40 0 0 -60z m-12 -128 c25 -33 12 -89 -24 -103 -53 -20 -95
26 -80 86 11 44 74 54 104 17z"/>
<path d="M1300 400 c0 -57 -1 -60 -19 -50 -28 15 -87 12 -121 -5 -80 -41 -80
-189 0 -230 35 -18 111 -20 128 -3 9 9 12 9 12 0 0 -7 16 -12 40 -12 l40 0 0
180 0 180 -40 0 -40 0 0 -60z m-12 -128 c25 -33 12 -89 -24 -103 -53 -20 -95
26 -80 86 11 44 74 54 104 17z"/>
<path d="M160 435 c0 -4 29 -56 65 -115 59 -99 65 -113 65 -164 l0 -56 40 0
40 0 0 60 c0 55 4 66 60 157 33 53 60 103 60 110 0 8 -13 13 -34 13 -32 0 -38
-5 -78 -70 -24 -38 -45 -70 -48 -70 -3 1 -23 31 -45 68 -39 64 -42 67 -83 70
-23 2 -42 0 -42 -3z"/>
<path d="M507 344 c-24 -13 -26 -17 -16 -37 7 -12 13 -23 14 -25 2 -2 22 2 44
9 31 9 47 9 66 1 40 -18 29 -29 -36 -36 -45 -5 -67 -14 -85 -31 -53 -53 -11
-125 71 -125 26 0 55 5 66 10 13 7 19 7 19 0 0 -5 16 -10 35 -10 l35 0 0 96
c0 106 -7 127 -50 149 -37 19 -127 19 -163 -1z m131 -156 c-4 -33 -52 -48 -76
-24 -16 16 -16 18 2 32 11 8 33 14 49 14 24 0 28 -4 25 -22z"/>
<path d="M1440 230 l0 -130 40 0 40 0 0 130 0 130 -40 0 -40 0 0 -130z"/>
<path d="M1609 321 c-35 -35 -39 -44 -39 -90 0 -44 5 -56 34 -89 34 -36 36
-37 110 -37 58 0 79 4 93 18 17 16 16 18 -2 36 -18 18 -25 19 -62 9 -35 -10
-45 -9 -67 5 -45 30 -31 37 69 37 l95 0 0 30 c0 75 -53 120 -141 120 -46 0
-55 -4 -90 -39z m137 -35 c27 -21 14 -28 -47 -24 -50 3 -52 4 -35 21 21 21 55
22 82 3z"/>
</g>
</svg>
